<mxfile host="app.diagrams.net" modified="2023-12-30T08:56:24.285Z" agent="Mozilla/5.0 (Windows NT 10.0; Win64; x64) AppleWebKit/537.36 (KHTML, like Gecko) Chrome/120.0.0.0 Safari/537.36" etag="Fr2mvqbP3YyNqzSdaShj" version="22.1.16" type="github">
  <diagram name="Page-1" id="LdkZsFCRSm-t6q4eV4kE">
    <mxGraphModel dx="1050" dy="618" grid="1" gridSize="10" guides="1" tooltips="1" connect="1" arrows="1" fold="1" page="1" pageScale="1" pageWidth="827" pageHeight="1169" math="0" shadow="0">
      <root>
        <mxCell id="0" />
        <mxCell id="1" parent="0" />
        <mxCell id="Geg1OcHd6rzXoLyp0eXr-19" value="User Action / Experience" style="swimlane;startSize=20;whiteSpace=wrap;html=1;" vertex="1" parent="1">
          <mxGeometry x="120" y="80" width="170" height="760" as="geometry" />
        </mxCell>
        <mxCell id="Geg1OcHd6rzXoLyp0eXr-21" value="Technology" style="swimlane;startSize=20;whiteSpace=wrap;html=1;" vertex="1" parent="1">
          <mxGeometry x="290" y="80" width="510" height="760" as="geometry" />
        </mxCell>
        <mxCell id="Geg1OcHd6rzXoLyp0eXr-22" value="" style="rounded=1;arcSize=10;dashed=0;fillColor=none;gradientColor=none;strokeWidth=2;" vertex="1" parent="Geg1OcHd6rzXoLyp0eXr-21">
          <mxGeometry x="40" y="40" width="440" height="690" as="geometry" />
        </mxCell>
        <mxCell id="Geg1OcHd6rzXoLyp0eXr-23" value="" style="dashed=0;html=1;shape=mxgraph.aws3.cloud;fillColor=#F58536;gradientColor=none;dashed=0;" vertex="1" parent="Geg1OcHd6rzXoLyp0eXr-21">
          <mxGeometry x="60" y="20" width="52" height="36" as="geometry" />
        </mxCell>
        <mxCell id="Geg1OcHd6rzXoLyp0eXr-24" value="CloudFront" style="sketch=0;points=[[0,0,0],[0.25,0,0],[0.5,0,0],[0.75,0,0],[1,0,0],[0,1,0],[0.25,1,0],[0.5,1,0],[0.75,1,0],[1,1,0],[0,0.25,0],[0,0.5,0],[0,0.75,0],[1,0.25,0],[1,0.5,0],[1,0.75,0]];outlineConnect=0;fontColor=#232F3E;fillColor=#8C4FFF;strokeColor=#ffffff;dashed=0;verticalLabelPosition=bottom;verticalAlign=top;align=center;html=1;fontSize=12;fontStyle=0;aspect=fixed;shape=mxgraph.aws4.resourceIcon;resIcon=mxgraph.aws4.cloudfront;" vertex="1" parent="Geg1OcHd6rzXoLyp0eXr-21">
          <mxGeometry x="64" y="100" width="48" height="48" as="geometry" />
        </mxCell>
        <mxCell id="Geg1OcHd6rzXoLyp0eXr-25" value="CloudFront" style="sketch=0;points=[[0,0,0],[0.25,0,0],[0.5,0,0],[0.75,0,0],[1,0,0],[0,1,0],[0.25,1,0],[0.5,1,0],[0.75,1,0],[1,1,0],[0,0.25,0],[0,0.5,0],[0,0.75,0],[1,0.25,0],[1,0.5,0],[1,0.75,0]];outlineConnect=0;fontColor=#232F3E;fillColor=#8C4FFF;strokeColor=#ffffff;dashed=0;verticalLabelPosition=bottom;verticalAlign=top;align=center;html=1;fontSize=12;fontStyle=0;aspect=fixed;shape=mxgraph.aws4.resourceIcon;resIcon=mxgraph.aws4.cloudfront;" vertex="1" parent="Geg1OcHd6rzXoLyp0eXr-21">
          <mxGeometry x="62" y="440" width="48" height="48" as="geometry" />
        </mxCell>
        <mxCell id="Geg1OcHd6rzXoLyp0eXr-29" value="" style="edgeStyle=orthogonalEdgeStyle;rounded=0;orthogonalLoop=1;jettySize=auto;html=1;" edge="1" parent="Geg1OcHd6rzXoLyp0eXr-21" source="Geg1OcHd6rzXoLyp0eXr-26" target="Geg1OcHd6rzXoLyp0eXr-24">
          <mxGeometry relative="1" as="geometry" />
        </mxCell>
        <mxCell id="Geg1OcHd6rzXoLyp0eXr-26" value="Static Website&lt;br&gt;&quot;smartfarming Customer Portal&quot;&lt;br&gt;" style="sketch=0;outlineConnect=0;fontColor=#232F3E;gradientColor=none;fillColor=#7AA116;strokeColor=none;dashed=0;verticalLabelPosition=bottom;verticalAlign=top;align=center;html=1;fontSize=12;fontStyle=0;aspect=fixed;pointerEvents=1;shape=mxgraph.aws4.bucket_with_objects;" vertex="1" parent="Geg1OcHd6rzXoLyp0eXr-21">
          <mxGeometry x="190" y="97.6" width="50.38" height="52.4" as="geometry" />
        </mxCell>
        <mxCell id="Geg1OcHd6rzXoLyp0eXr-32" value="" style="edgeStyle=orthogonalEdgeStyle;rounded=0;orthogonalLoop=1;jettySize=auto;html=1;" edge="1" parent="Geg1OcHd6rzXoLyp0eXr-21" source="Geg1OcHd6rzXoLyp0eXr-31" target="Geg1OcHd6rzXoLyp0eXr-25">
          <mxGeometry relative="1" as="geometry" />
        </mxCell>
        <mxCell id="Geg1OcHd6rzXoLyp0eXr-31" value="Static Website&lt;br&gt;&quot;smartfarming Admin Portal&quot;" style="sketch=0;outlineConnect=0;fontColor=#232F3E;gradientColor=none;fillColor=#7AA116;strokeColor=none;dashed=0;verticalLabelPosition=bottom;verticalAlign=top;align=center;html=1;fontSize=12;fontStyle=0;aspect=fixed;pointerEvents=1;shape=mxgraph.aws4.bucket_with_objects;" vertex="1" parent="Geg1OcHd6rzXoLyp0eXr-21">
          <mxGeometry x="190" y="437.6" width="50.38" height="52.4" as="geometry" />
        </mxCell>
      </root>
    </mxGraphModel>
  </diagram>
</mxfile>
